<svg width="107" height="30" viewBox="0 0 107 30" fill="none" xmlns="http://www.w3.org/2000/svg">
<path d="M0 2.47754H4.49098V25.3436H0V2.47754Z" fill="#FEFEFE"/>
<path d="M16.597 21.4219C18.9058 21.4219 20.076 19.3661 20.076 16.9309V9.6884H24.5669V17.4685C24.5669 22.0544 21.8471 25.7547 16.597 25.7547C11.3787 25.7547 8.65877 22.0544 8.65877 17.4685V9.6884H13.1497V16.9625C13.1497 19.3661 14.2883 21.4219 16.597 21.4219Z" fill="#FEFEFE"/>
<path d="M47.8876 9.11912C52.9795 9.11912 55.5729 12.7878 55.5729 17.1523V25.3436H51.0819V17.9113C51.0819 15.5077 50.0382 13.4836 47.5713 13.4836C45.1361 13.4836 44.0924 15.4761 44.0924 17.8481V25.3436H39.6014V17.8797C39.6014 15.4761 38.5578 13.4836 36.1225 13.4836C33.624 13.4836 32.6436 15.5077 32.6436 17.8797V25.3436H28.1526V17.1523C28.1526 12.7878 30.7144 9.11912 35.7746 9.11912C38.7791 9.11912 40.9614 10.4474 41.8786 12.598C42.859 10.4474 45.0728 9.11912 47.8876 9.11912Z" fill="#FEFEFE"/>
<path d="M83.0176 25.3436H78.5266V16.3616C78.5266 12.345 80.8037 9.27726 85.4528 9.27726C86.4649 9.27726 87.5718 9.46701 88.3625 9.81491V14.1794C87.6034 13.7366 86.6863 13.5152 85.864 13.5152C84.0929 13.5152 83.0176 14.6538 83.0176 16.5197V25.3436Z" fill="#FEFEFE"/>
<path d="M97.5297 25.7547C92.9755 25.7547 89.7812 22.0228 89.7812 17.4685C89.7812 12.9776 93.4499 9.214 98.2572 9.214C103.159 9.214 106.765 12.7562 106.765 17.4685V25.3436H102.495V23.5092C101.388 24.9008 99.6804 25.7547 97.5297 25.7547ZM98.2572 21.5484C100.566 21.5484 102.274 19.714 102.274 17.5002C102.274 15.2863 100.566 13.452 98.2572 13.452C95.9484 13.452 94.2722 15.2863 94.2722 17.5002C94.2722 19.714 95.9484 21.5484 98.2572 21.5484Z" fill="#FEFEFE"/>
<g filter="url(#filter0_f_77_1608)">
<circle cx="67.647" cy="17.353" r="4.64697" fill="#FE7739"/>
</g>
<path d="M67.5748 9C65.8804 9 64.224 9.49851 62.8152 10.4325C61.4064 11.3665 60.3083 12.694 59.6599 14.2472C59.0115 15.8004 58.8419 17.5094 59.1724 19.1583C59.503 20.8071 60.3189 22.3216 61.517 23.5103C62.7151 24.6991 64.2416 25.5086 65.9034 25.8367C67.5653 26.1646 69.2878 25.9963 70.8532 25.353C72.4186 24.7096 73.7565 23.6201 74.6979 22.2223C75.6393 20.8245 76.1417 19.1811 76.1417 17.5C76.1417 15.2456 75.2391 13.0836 73.6325 11.4896C72.0259 9.89553 69.8469 9 67.5748 9ZM72.8372 18.7422C72.8372 18.9122 72.0638 18.9365 72.0638 19.1065C72.0638 19.2765 72.8288 19.5072 72.8288 19.7416C72.8288 20.0281 71.2524 20.0706 71.2524 20.3572C71.2524 20.6632 72.4481 20.5685 72.4481 20.9C72.4481 21.291 69.4448 21.1088 69.4448 21.5156C69.4448 21.671 69.8291 21.7354 70.3101 21.7864C70.5744 21.8155 70.5168 21.9442 70.3664 22.0293C69.5256 22.5383 68.5597 22.8076 67.5748 22.8076C66.5898 22.8076 65.6239 22.5383 64.7831 22.0293C64.6338 21.9382 64.5751 21.8095 64.8394 21.7864C65.3204 21.7354 65.7059 21.665 65.7059 21.5156C65.7059 21.1088 62.7014 21.291 62.7014 20.9C62.7014 20.5685 63.8983 20.6571 63.8983 20.3572C63.8983 20.0706 62.3208 20.0281 62.3208 19.7416C62.3208 19.5072 63.0869 19.2801 63.0869 19.1065C63.0869 18.9328 62.3122 18.9134 62.3122 18.7422C62.3122 18.571 62.8776 18.4605 62.8776 18.3391C62.8776 18.1096 62.2204 18.5273 62.2204 17.5C62.2204 16.091 62.7846 14.7398 63.7887 13.7435C64.7928 12.7472 66.1547 12.1875 67.5748 12.1875C68.9948 12.1875 70.3567 12.7472 71.3609 13.7435C72.365 14.7398 72.929 16.091 72.929 17.5C72.929 18.5273 72.2719 18.1071 72.2719 18.3391C72.2719 18.4605 72.8372 18.5588 72.8372 18.7422Z" fill="#FEFEFE"/>
<defs>
<filter id="filter0_f_77_1608" x="57.0253" y="6.73137" width="21.2433" height="21.2433" filterUnits="userSpaceOnUse" color-interpolation-filters="sRGB">
<feFlood flood-opacity="0" result="BackgroundImageFix"/>
<feBlend mode="normal" in="SourceGraphic" in2="BackgroundImageFix" result="shape"/>
<feGaussianBlur stdDeviation="2.98734" result="effect1_foregroundBlur_77_1608"/>
</filter>
</defs>
</svg>
